<?xml version="1.0" encoding="UTF-8" standalone="no"?>
<svg
        viewBox="0 0 453 523"
        xmlns="http://www.w3.org/2000/svg">
        <mask id="cutout-mask">
            <!-- 1. Everything white in the mask is VISIBLE -->
            <rect x="0" y="0" width="100%" height="100%" fill="white" />

            <!-- 2. Everything black in the mask is HIDDEN (cut out) -->
            <g id="g13">
                <circle
                        style="fill:none;stroke:black;stroke-width:30;stroke-linecap:round;stroke-dasharray:none;stroke-opacity:1;paint-order:stroke fill markers"
                        id="path11"
                        cx="342.76044"
                        cy="305.51096"
                        r="100" />
                <path
                        style="fill:none;stroke:black;stroke-width:46.1145;stroke-linecap:round;stroke-dasharray:none;stroke-opacity:1;paint-order:stroke fill markers"
                        d="M 393.87752,310.61449 H 290.84576 v 0"
                        id="path6-5" />
                <path
                        style="fill:none;stroke:black;stroke-width:46.1145;stroke-linecap:round;stroke-dasharray:none;stroke-opacity:1;paint-order:stroke fill markers"
                        d="m 341.96733,254.63431 v 102.10756 0"
                        id="path6" />
            </g>
        </mask>
    <!-- Apply the mask to the main shape -->
    <path
            mask="url(#cutout-mask)"
            d="m 0,487.67025 c 0,13.4164 10.9,24.32974 24.3,24.32974 5,0 9.9,-1.50183 14,-4.40538 l 153.70001,-107.7317 153.7,107.7317 c 4.1,2.90355 9,4.40538 14,4.40538 13.4,0 24.3,-10.91334 24.3,-24.32974 C 384.00001,393.2521 383.57489,36.649024 383.57489,0 356.43093,0 14.42196,0.1515827 0.1110078,0.1515827 0.1110078,13.763499 0,370.05285 0,487.67025 Z"
            fill="currentColor"
            fill-rule="evenodd"
            id="path1"
            style="stroke-width:1.00061" />
</svg>